{
 "cells": [
  {
   "cell_type": "markdown",
   "metadata": {},
   "source": [
    "# 分析midi檔案"
   ]
  },
  {
   "cell_type": "code",
   "execution_count": 39,
   "metadata": {},
   "outputs": [],
   "source": [
    "# https://mido.readthedocs.io/en/latest/midi_files.html\n",
    "from mido import MidiFile\n",
    "from mido import MetaMessage\n",
    "from mido import tempo2bpm"
   ]
  },
  {
   "cell_type": "code",
   "execution_count": 40,
   "metadata": {},
   "outputs": [
    {
     "name": "stdout",
     "output_type": "stream",
     "text": [
      "MIDI檔案資訊： <midi file 'MIDI/MIDI - Beauty_and_the_Beast.mid' type 1, 1 tracks, 61 messages>\n",
      "MIDI長度： 16.3091045\n"
     ]
    }
   ],
   "source": [
    "mid1 = MidiFile('MIDI/MIDI - Beauty_and_the_Beast.mid')\n",
    "print('MIDI檔案資訊：',mid1)\n",
    "print('MIDI長度：',mid1.length)"
   ]
  },
  {
   "cell_type": "code",
   "execution_count": 41,
   "metadata": {},
   "outputs": [
    {
     "name": "stdout",
     "output_type": "stream",
     "text": [
      "<midi track '' 61 messages>\n"
     ]
    }
   ],
   "source": [
    "# 印出檔案資訊所有 tracks的 messages數量\n",
    "for track in mid1.tracks:\n",
    "    print(track)"
   ]
  },
  {
   "cell_type": "code",
   "execution_count": 47,
   "metadata": {
    "scrolled": true
   },
   "outputs": [
    {
     "name": "stdout",
     "output_type": "stream",
     "text": [
      "<meta message time_signature numerator=4 denominator=4 clocks_per_click=24 notated_32nd_notes_per_beat=8 time=0>\n",
      "<meta message key_signature key='F' time=0>\n",
      "<meta message set_tempo tempo=545455 time=0>\n",
      "control_change channel=0 control=121 value=0 time=0\n",
      "program_change channel=0 program=0 time=0\n",
      "control_change channel=0 control=7 value=100 time=0\n",
      "control_change channel=0 control=10 value=64 time=0\n",
      "control_change channel=0 control=91 value=0 time=0\n",
      "control_change channel=0 control=93 value=0 time=0\n",
      "<meta message midi_port port=0 time=0>\n",
      "note_on channel=0 note=57 velocity=80 time=960\n",
      "note_on channel=0 note=57 velocity=0 time=227\n",
      "note_on channel=0 note=60 velocity=80 time=13\n",
      "note_on channel=0 note=60 velocity=0 time=227\n",
      "note_on channel=0 note=64 velocity=80 time=13\n",
      "note_on channel=0 note=64 velocity=0 time=227\n",
      "note_on channel=0 note=65 velocity=80 time=13\n",
      "note_on channel=0 note=65 velocity=0 time=227\n",
      "note_on channel=0 note=58 velocity=80 time=13\n",
      "note_on channel=0 note=58 velocity=0 time=911\n",
      "note_on channel=0 note=57 velocity=80 time=1969\n",
      "note_on channel=0 note=57 velocity=0 time=227\n",
      "note_on channel=0 note=60 velocity=80 time=13\n",
      "note_on channel=0 note=60 velocity=0 time=227\n",
      "note_on channel=0 note=64 velocity=80 time=13\n",
      "note_on channel=0 note=64 velocity=0 time=227\n",
      "note_on channel=0 note=65 velocity=80 time=13\n",
      "note_on channel=0 note=65 velocity=0 time=227\n",
      "note_on channel=0 note=67 velocity=80 time=13\n",
      "note_on channel=0 note=67 velocity=0 time=911\n",
      "note_on channel=0 note=65 velocity=80 time=1969\n",
      "note_on channel=0 note=65 velocity=0 time=227\n",
      "note_on channel=0 note=67 velocity=80 time=13\n",
      "note_on channel=0 note=67 velocity=0 time=227\n",
      "note_on channel=0 note=69 velocity=80 time=13\n",
      "note_on channel=0 note=69 velocity=0 time=227\n",
      "note_on channel=0 note=70 velocity=80 time=13\n",
      "note_on channel=0 note=70 velocity=0 time=227\n",
      "note_on channel=0 note=72 velocity=80 time=13\n",
      "note_on channel=0 note=72 velocity=0 time=911\n",
      "note_on channel=0 note=72 velocity=80 time=49\n",
      "note_on channel=0 note=72 velocity=0 time=227\n",
      "note_on channel=0 note=70 velocity=80 time=13\n",
      "note_on channel=0 note=70 velocity=0 time=227\n",
      "note_on channel=0 note=69 velocity=80 time=13\n",
      "note_on channel=0 note=69 velocity=0 time=227\n",
      "note_on channel=0 note=67 velocity=80 time=13\n",
      "note_on channel=0 note=67 velocity=0 time=227\n",
      "note_on channel=0 note=65 velocity=80 time=13\n",
      "note_on channel=0 note=65 velocity=0 time=911\n",
      "note_on channel=0 note=70 velocity=80 time=49\n",
      "note_on channel=0 note=70 velocity=0 time=227\n",
      "note_on channel=0 note=69 velocity=80 time=13\n",
      "note_on channel=0 note=69 velocity=0 time=227\n",
      "note_on channel=0 note=67 velocity=80 time=13\n",
      "note_on channel=0 note=67 velocity=0 time=227\n",
      "note_on channel=0 note=65 velocity=80 time=13\n",
      "note_on channel=0 note=65 velocity=0 time=227\n",
      "note_on channel=0 note=60 velocity=80 time=13\n",
      "note_on channel=0 note=60 velocity=0 time=911\n",
      "<meta message end_of_track time=1>\n"
     ]
    }
   ],
   "source": [
    "for msg in mid1.tracks[0]:\n",
    "    print(msg)"
   ]
  },
  {
   "cell_type": "code",
   "execution_count": 49,
   "metadata": {
    "scrolled": true
   },
   "outputs": [
    {
     "name": "stdout",
     "output_type": "stream",
     "text": [
      "time_signature : numerator=4 denominator=4\n",
      "key_signature : F\n",
      "tempo: 109.99990833340972\n"
     ]
    }
   ],
   "source": [
    "# 印出音軌的資訊(節拍、拍號、音調)\n",
    "for msg in mid1.tracks[0]:\n",
    "    #print(msg)\n",
    "    if msg.type == 'key_signature':\n",
    "        print('key_signature :',msg.key)\n",
    "    if msg.type == 'time_signature':\n",
    "        print('time_signature : numerator={} denominator={}'.format(msg.numerator,msg.denominator))\n",
    "    if msg.type == \"set_tempo\":\n",
    "        print(\"tempo:\",tempo2bpm(msg.tempo))"
   ]
  },
  {
   "cell_type": "code",
   "execution_count": 6,
   "metadata": {},
   "outputs": [],
   "source": [
    "count = 0\n",
    "msg_list = []"
   ]
  },
  {
   "cell_type": "code",
   "execution_count": 7,
   "metadata": {
    "collapsed": true
   },
   "outputs": [
    {
     "name": "stdout",
     "output_type": "stream",
     "text": [
      "Track 0: \n",
      "track :  <midi track '' 61 messages>\n",
      "tempo: 109.99990833340972\n",
      "\n",
      "note_on channel=0 note=57 velocity=80 time=960    |   [144, 57, 80, 960]\n",
      "note_on channel=0 note=60 velocity=80 time=13     |    [144, 60, 80, 13]\n",
      "note_on channel=0 note=64 velocity=80 time=13     |    [144, 64, 80, 13]\n",
      "note_on channel=0 note=65 velocity=80 time=13     |    [144, 65, 80, 13]\n",
      "note_on channel=0 note=58 velocity=80 time=13     |    [144, 58, 80, 13]\n",
      "note_on channel=0 note=57 velocity=80 time=1969   |  [144, 57, 80, 1969]\n",
      "note_on channel=0 note=60 velocity=80 time=13     |    [144, 60, 80, 13]\n",
      "note_on channel=0 note=64 velocity=80 time=13     |    [144, 64, 80, 13]\n",
      "note_on channel=0 note=65 velocity=80 time=13     |    [144, 65, 80, 13]\n",
      "note_on channel=0 note=67 velocity=80 time=13     |    [144, 67, 80, 13]\n",
      "note_on channel=0 note=65 velocity=80 time=1969   |  [144, 65, 80, 1969]\n",
      "note_on channel=0 note=67 velocity=80 time=13     |    [144, 67, 80, 13]\n",
      "note_on channel=0 note=69 velocity=80 time=13     |    [144, 69, 80, 13]\n",
      "note_on channel=0 note=70 velocity=80 time=13     |    [144, 70, 80, 13]\n",
      "note_on channel=0 note=72 velocity=80 time=13     |    [144, 72, 80, 13]\n",
      "note_on channel=0 note=72 velocity=80 time=49     |    [144, 72, 80, 49]\n",
      "note_on channel=0 note=70 velocity=80 time=13     |    [144, 70, 80, 13]\n",
      "note_on channel=0 note=69 velocity=80 time=13     |    [144, 69, 80, 13]\n",
      "note_on channel=0 note=67 velocity=80 time=13     |    [144, 67, 80, 13]\n",
      "note_on channel=0 note=65 velocity=80 time=13     |    [144, 65, 80, 13]\n",
      "note_on channel=0 note=70 velocity=80 time=49     |    [144, 70, 80, 49]\n",
      "note_on channel=0 note=69 velocity=80 time=13     |    [144, 69, 80, 13]\n",
      "note_on channel=0 note=67 velocity=80 time=13     |    [144, 67, 80, 13]\n",
      "note_on channel=0 note=65 velocity=80 time=13     |    [144, 65, 80, 13]\n",
      "note_on channel=0 note=60 velocity=80 time=13     |    [144, 60, 80, 13]\n"
     ]
    }
   ],
   "source": [
    "for i, track in enumerate(mid1.tracks):\n",
    "    print('Track {}: {}'.format(i, track.name))\n",
    "    print('track : ',track)\n",
    "    \n",
    "##    if i == 0:\n",
    "##        for msg in track:\n",
    "##            print(msg)\n",
    "##            count += 1\n",
    "##            if msg.type==\"set_tempo\":\n",
    "##                print(\"tempo:\",tempo2bpm(msg.tempo))             \n",
    "    \n",
    "    if i == 0:\n",
    "        for msg in track:\n",
    "            if msg.type==\"set_tempo\":\n",
    "                    print(\"tempo:\",tempo2bpm(msg.tempo))\n",
    "                    print()\n",
    "           \n",
    "            if msg.type == 'note_on' or msg.type == 'note_off':\n",
    "                velocity = msg.velocity\n",
    "                \n",
    "                if velocity != 0:\n",
    "##                    print(msg) # note_on channel=__ note=__ velocity=__ time=__\n",
    "                    time = msg.time\n",
    "                    bytes_list = msg.bytes()\n",
    "                    bytes_list.append(time)\n",
    "##                    print(bytes_list) # [__, __, __, __]\n",
    "                    \n",
    "                    if time < 99:\n",
    "                        print(msg,'    |   ',bytes_list)\n",
    "                    elif 99 <time < 1000:\n",
    "                        print(msg, '   |  ',bytes_list)\n",
    "                    elif time > 1000:\n",
    "                        print(msg,'  | ',bytes_list)\n",
    "                    count += 1      "
   ]
  },
  {
   "cell_type": "code",
   "execution_count": 8,
   "metadata": {},
   "outputs": [
    {
     "name": "stdout",
     "output_type": "stream",
     "text": [
      "資料筆數： 25\n"
     ]
    }
   ],
   "source": [
    "print('資料筆數：',count)"
   ]
  },
  {
   "cell_type": "code",
   "execution_count": 38,
   "metadata": {},
   "outputs": [
    {
     "name": "stdout",
     "output_type": "stream",
     "text": [
      "MIDI檔案資訊： <midi file 'MIDI/MIDI - twinkle_twinkle.mid' type 1, 2 tracks, 156 messages>\n",
      "MIDI長度： 28.800625000000014\n",
      "Ticks per beat: 960\n"
     ]
    }
   ],
   "source": [
    "mid2 = MidiFile('MIDI/MIDI - twinkle_twinkle.mid')\n",
    "print('MIDI檔案資訊：',mid2)\n",
    "print('MIDI長度：',mid2.length)\n",
    "print('Ticks per beat:',mid2.ticks_per_beat)"
   ]
  },
  {
   "cell_type": "code",
   "execution_count": 32,
   "metadata": {},
   "outputs": [
    {
     "name": "stdout",
     "output_type": "stream",
     "text": [
      "<midi track 'Twinke Twinkle Little Star' 6 messages>\n",
      "<midi track '' 150 messages>\n"
     ]
    }
   ],
   "source": [
    "# 印出檔案資訊所有 tracks的 messages數量\n",
    "for track in mid2.tracks:\n",
    "    print(track)"
   ]
  },
  {
   "cell_type": "code",
   "execution_count": 36,
   "metadata": {},
   "outputs": [
    {
     "name": "stdout",
     "output_type": "stream",
     "text": [
      "<meta message time_signature numerator=4 denominator=4 clocks_per_click=24 notated_32nd_notes_per_beat=8 time=0>\n",
      "<meta message key_signature key='C' time=0>\n",
      "<meta message set_tempo tempo=600000 time=0>\n",
      "<meta message track_name name='Twinke Twinkle Little Star' time=0>\n",
      "<meta message text text='trad.' time=0>\n",
      "<meta message end_of_track time=1>\n"
     ]
    }
   ],
   "source": [
    "# 印出音軌的資訊(節拍、拍號、音調)\n",
    "for msg in mid2.tracks[0]:\n",
    "    print(msg)"
   ]
  },
  {
   "cell_type": "code",
   "execution_count": 12,
   "metadata": {},
   "outputs": [],
   "source": [
    "count = 0\n",
    "msg_list = []"
   ]
  },
  {
   "cell_type": "code",
   "execution_count": 13,
   "metadata": {
    "collapsed": true
   },
   "outputs": [
    {
     "name": "stdout",
     "output_type": "stream",
     "text": [
      "Track 0: Twinke Twinkle Little Star\n",
      "track :  <midi track 'Twinke Twinkle Little Star' 6 messages>\n",
      "tempo: 100.0\n",
      "\n",
      "Track 1: \n",
      "track :  <midi track '' 150 messages>\n",
      "note_on channel=0 note=60 velocity=69 time=0     |    [144, 60, 69, 0]\n",
      "note_on channel=0 note=48 velocity=65 time=0     |    [144, 48, 65, 0]\n",
      "note_on channel=0 note=60 velocity=76 time=0     |    [144, 60, 76, 0]\n",
      "note_on channel=0 note=67 velocity=87 time=0     |    [144, 67, 87, 0]\n",
      "note_on channel=0 note=52 velocity=76 time=0     |    [144, 52, 76, 0]\n",
      "note_on channel=0 note=67 velocity=81 time=0     |    [144, 67, 81, 0]\n",
      "note_on channel=0 note=69 velocity=80 time=0     |    [144, 69, 80, 0]\n",
      "note_on channel=0 note=53 velocity=76 time=0     |    [144, 53, 76, 0]\n",
      "note_on channel=0 note=69 velocity=77 time=0     |    [144, 69, 77, 0]\n",
      "note_on channel=0 note=67 velocity=76 time=0     |    [144, 67, 76, 0]\n",
      "note_on channel=0 note=52 velocity=77 time=0     |    [144, 52, 77, 0]\n",
      "note_on channel=0 note=65 velocity=67 time=0     |    [144, 65, 67, 0]\n",
      "note_on channel=0 note=50 velocity=76 time=0     |    [144, 50, 76, 0]\n",
      "note_on channel=0 note=65 velocity=74 time=0     |    [144, 65, 74, 0]\n",
      "note_on channel=0 note=64 velocity=73 time=0     |    [144, 64, 73, 0]\n",
      "note_on channel=0 note=48 velocity=75 time=0     |    [144, 48, 75, 0]\n",
      "note_on channel=0 note=64 velocity=74 time=0     |    [144, 64, 74, 0]\n",
      "note_on channel=0 note=62 velocity=71 time=0     |    [144, 62, 71, 0]\n",
      "note_on channel=0 note=53 velocity=81 time=0     |    [144, 53, 81, 0]\n",
      "note_on channel=0 note=62 velocity=77 time=0     |    [144, 62, 77, 0]\n",
      "note_on channel=0 note=55 velocity=78 time=0     |    [144, 55, 78, 0]\n",
      "note_on channel=0 note=60 velocity=68 time=0     |    [144, 60, 68, 0]\n",
      "note_on channel=0 note=52 velocity=70 time=0     |    [144, 52, 70, 0]\n",
      "note_on channel=0 note=48 velocity=72 time=0     |    [144, 48, 72, 0]\n",
      "note_on channel=0 note=67 velocity=87 time=0     |    [144, 67, 87, 0]\n",
      "note_on channel=0 note=52 velocity=84 time=0     |    [144, 52, 84, 0]\n",
      "note_on channel=0 note=67 velocity=78 time=0     |    [144, 67, 78, 0]\n",
      "note_on channel=0 note=65 velocity=68 time=0     |    [144, 65, 68, 0]\n",
      "note_on channel=0 note=53 velocity=76 time=0     |    [144, 53, 76, 0]\n",
      "note_on channel=0 note=65 velocity=72 time=0     |    [144, 65, 72, 0]\n",
      "note_on channel=0 note=64 velocity=74 time=0     |    [144, 64, 74, 0]\n",
      "note_on channel=0 note=55 velocity=83 time=0     |    [144, 55, 83, 0]\n",
      "note_on channel=0 note=64 velocity=75 time=0     |    [144, 64, 75, 0]\n",
      "note_on channel=0 note=62 velocity=74 time=0     |    [144, 62, 74, 0]\n",
      "note_on channel=0 note=55 velocity=76 time=0     |    [144, 55, 76, 0]\n",
      "note_on channel=0 note=67 velocity=87 time=0     |    [144, 67, 87, 0]\n",
      "note_on channel=0 note=52 velocity=71 time=0     |    [144, 52, 71, 0]\n",
      "note_on channel=0 note=67 velocity=81 time=0     |    [144, 67, 81, 0]\n",
      "note_on channel=0 note=65 velocity=68 time=0     |    [144, 65, 68, 0]\n",
      "note_on channel=0 note=53 velocity=77 time=0     |    [144, 53, 77, 0]\n",
      "note_on channel=0 note=65 velocity=75 time=0     |    [144, 65, 75, 0]\n",
      "note_on channel=0 note=64 velocity=77 time=0     |    [144, 64, 77, 0]\n",
      "note_on channel=0 note=55 velocity=80 time=0     |    [144, 55, 80, 0]\n",
      "note_on channel=0 note=64 velocity=77 time=0     |    [144, 64, 77, 0]\n",
      "note_on channel=0 note=62 velocity=72 time=0     |    [144, 62, 72, 0]\n",
      "note_on channel=0 note=55 velocity=74 time=0     |    [144, 55, 74, 0]\n",
      "note_on channel=0 note=60 velocity=73 time=0     |    [144, 60, 73, 0]\n",
      "note_on channel=0 note=48 velocity=73 time=0     |    [144, 48, 73, 0]\n",
      "note_on channel=0 note=60 velocity=74 time=0     |    [144, 60, 74, 0]\n",
      "note_on channel=0 note=67 velocity=85 time=0     |    [144, 67, 85, 0]\n",
      "note_on channel=0 note=52 velocity=85 time=0     |    [144, 52, 85, 0]\n",
      "note_on channel=0 note=67 velocity=79 time=0     |    [144, 67, 79, 0]\n",
      "note_on channel=0 note=69 velocity=79 time=0     |    [144, 69, 79, 0]\n",
      "note_on channel=0 note=53 velocity=84 time=0     |    [144, 53, 84, 0]\n",
      "note_on channel=0 note=69 velocity=77 time=0     |    [144, 69, 77, 0]\n",
      "note_on channel=0 note=67 velocity=69 time=0     |    [144, 67, 69, 0]\n",
      "note_on channel=0 note=52 velocity=74 time=0     |    [144, 52, 74, 0]\n",
      "note_on channel=0 note=65 velocity=74 time=0     |    [144, 65, 74, 0]\n",
      "note_on channel=0 note=50 velocity=79 time=0     |    [144, 50, 79, 0]\n",
      "note_on channel=0 note=65 velocity=77 time=0     |    [144, 65, 77, 0]\n",
      "note_on channel=0 note=64 velocity=76 time=0     |    [144, 64, 76, 0]\n",
      "note_on channel=0 note=48 velocity=74 time=0     |    [144, 48, 74, 0]\n",
      "note_on channel=0 note=64 velocity=76 time=0     |    [144, 64, 76, 0]\n",
      "note_on channel=0 note=62 velocity=73 time=0     |    [144, 62, 73, 0]\n",
      "note_on channel=0 note=53 velocity=80 time=0     |    [144, 53, 80, 0]\n",
      "note_on channel=0 note=62 velocity=77 time=0     |    [144, 62, 77, 0]\n",
      "note_on channel=0 note=55 velocity=81 time=0     |    [144, 55, 81, 0]\n",
      "note_on channel=0 note=60 velocity=71 time=0     |    [144, 60, 71, 0]\n",
      "note_on channel=0 note=48 velocity=69 time=0     |    [144, 48, 69, 0]\n"
     ]
    }
   ],
   "source": [
    "for i, track in enumerate(mid2.tracks):\n",
    "    print('Track {}: {}'.format(i, track.name))\n",
    "    print('track : ',track)        \n",
    "    #print(i)\n",
    "    \n",
    "    for msg in track:\n",
    "        if msg.type == \"set_tempo\" and i == 0:\n",
    "            print(\"tempo:\",tempo2bpm(msg.tempo))\n",
    "            print()\n",
    "           \n",
    "        if msg.type == 'note_on' or msg.type == 'note_off' and i == 1:\n",
    "            velocity = msg.velocity\n",
    "                \n",
    "            if velocity != 0:\n",
    "                #print(msg) # note_on channel=__ note=__ velocity=__ time=__\n",
    "                time = msg.time\n",
    "                bytes_list = msg.bytes()\n",
    "                bytes_list.append(time)\n",
    "                #print(bytes_list) # [__, __, __, __]\n",
    "                    \n",
    "                if time < 99:\n",
    "                    print(msg,'    |   ',bytes_list)\n",
    "                elif 99 <time < 1000:\n",
    "                    print(msg, '   |  ',bytes_list)\n",
    "                elif time > 1000:\n",
    "                    print(msg,'  | ',bytes_list)\n",
    "                count += 1      "
   ]
  },
  {
   "cell_type": "code",
   "execution_count": 14,
   "metadata": {},
   "outputs": [
    {
     "name": "stdout",
     "output_type": "stream",
     "text": [
      "資料筆數： 69\n"
     ]
    }
   ],
   "source": [
    "print('資料筆數：',count)"
   ]
  },
  {
   "cell_type": "markdown",
   "metadata": {},
   "source": [
    "# 取得note的音符值和拍子位置"
   ]
  },
  {
   "cell_type": "code",
   "execution_count": 15,
   "metadata": {},
   "outputs": [
    {
     "name": "stdout",
     "output_type": "stream",
     "text": [
      "key_signature = C\n"
     ]
    }
   ],
   "source": [
    "# 匯入分析之MIDI檔案\n",
    "path = 'MIDI/out.mid'\n",
    "mid  = MidiFile(path)\n",
    "\n",
    "# 印出調號 msg.key\n",
    "for i,track in enumerate(mid.tracks):\n",
    "    # print('Track {}:{}'.format(i,track.name))\n",
    "    for msg in track:\n",
    "        if msg.type == 'key_signature':\n",
    "            key = msg.key\n",
    "            print('key_signature =',key)\n",
    "            #m = str(msg)\n",
    "            #print(m[33])"
   ]
  },
  {
   "cell_type": "code",
   "execution_count": 16,
   "metadata": {},
   "outputs": [],
   "source": [
    "def decrypt(path, key):\n",
    "    note_dur = open(\"TXT/parts.txt\",\"w\")\n",
    "\n",
    "    mid  = MidiFile(path)\n",
    "\n",
    "    msg_lst = []\n",
    "    note_lst = []\n",
    "    \n",
    "    # 印出調號 msg.key\n",
    "    for i,track in enumerate(mid.tracks):\n",
    "        for msg in track:\n",
    "            \n",
    "            # MIDI檔案所有資訊\n",
    "            #print(msg)\n",
    "            \n",
    "            msg_lst.append(str(msg))\n",
    "            if msg.type == 'key_signature':\n",
    "                print('key_signature =',msg.key)\n",
    "                k = msg.key\n",
    "    \n",
    "    # 判斷分析的調號是否和原始輸入相吻合\n",
    "    if(k != key):\n",
    "        print(\"Key doesn't match.\")\n",
    "        exit(0)\n",
    "\n",
    "    # 取得 notes和 duration\n",
    "    \n",
    "    # 取note_off存入txt檔案中\n",
    "    for al in msg_lst:\n",
    "        if al.find(\"note_off\") == 0:\n",
    "            parts = al.split(\" \")\n",
    "            note_dur.write(parts[2] + \",\" + parts[4] + \"\\n\")\n",
    "    note_dur.close()\n",
    "\n",
    "    note_dur = open(\"TXT/parts.txt\",\"r\")\n",
    "    print('note_dur :'+ '\\n' + str(note_dur) + '\\n')\n",
    "    \n",
    "    # 印出txt檔案中每一筆資料(note和time)\n",
    "    for notes in note_dur:\n",
    "        notes = notes.strip('\\n')\n",
    "        print(notes)\n",
    "        #print('notes[5]',notes[5])\n",
    "        #print('notes[6]',notes[6])\n",
    "        note = int(notes[5]+notes[6])\n",
    "        dur = int(notes[13]+notes[14]+notes[15])"
   ]
  },
  {
   "cell_type": "code",
   "execution_count": 17,
   "metadata": {},
   "outputs": [
    {
     "name": "stdout",
     "output_type": "stream",
     "text": [
      "key_signature = C\n",
      "note_dur :\n",
      "<_io.TextIOWrapper name='TXT/parts.txt' mode='r' encoding='cp950'>\n",
      "\n",
      "note=60,time=256\n",
      "note=64,time=512\n",
      "note=67,time=256\n",
      "note=67,time=256\n",
      "note=60,time=128\n"
     ]
    }
   ],
   "source": [
    "# 印出調號 msg.key\n",
    "for i,track in enumerate(mid.tracks):\n",
    "    for msg in track:\n",
    "        if msg.type == 'key_signature':\n",
    "            key = msg.key\n",
    "\n",
    "# 從輸出的txt檔中，讀取資訊\n",
    "decrypt(path, key)"
   ]
  },
  {
   "cell_type": "markdown",
   "metadata": {},
   "source": [
    "# 測試不同BPM的midi檔案(Musescore製作)"
   ]
  },
  {
   "cell_type": "code",
   "execution_count": 18,
   "metadata": {
    "collapsed": true
   },
   "outputs": [
    {
     "name": "stdout",
     "output_type": "stream",
     "text": [
      "MIDI檔案資訊： <midi file 'MIDI/ForTest/Little_Star_bpm60.mid' type 1, 1 tracks, 95 messages>\n",
      "Track 0: \n",
      "track :  <midi track '' 95 messages>\n",
      "set_tempo: 1000000 | tempo: 60.0\n",
      "\n",
      "note_on channel=0 note=60 velocity=80 time=0       |    [144, 60, 80, 0]\n",
      "note_on channel=0 note=60 velocity=80 time=25      |    [144, 60, 80, 25]\n",
      "note_on channel=0 note=67 velocity=80 time=25      |    [144, 67, 80, 25]\n",
      "note_on channel=0 note=67 velocity=80 time=25      |    [144, 67, 80, 25]\n",
      "note_on channel=0 note=69 velocity=80 time=25      |    [144, 69, 80, 25]\n",
      "note_on channel=0 note=69 velocity=80 time=25      |    [144, 69, 80, 25]\n",
      "note_on channel=0 note=67 velocity=80 time=25      |    [144, 67, 80, 25]\n",
      "note_on channel=0 note=65 velocity=80 time=49      |    [144, 65, 80, 49]\n",
      "note_on channel=0 note=65 velocity=80 time=25      |    [144, 65, 80, 25]\n",
      "note_on channel=0 note=64 velocity=80 time=25      |    [144, 64, 80, 25]\n",
      "note_on channel=0 note=64 velocity=80 time=25      |    [144, 64, 80, 25]\n",
      "note_on channel=0 note=62 velocity=80 time=25      |    [144, 62, 80, 25]\n",
      "note_on channel=0 note=62 velocity=80 time=25      |    [144, 62, 80, 25]\n",
      "note_on channel=0 note=60 velocity=80 time=25      |    [144, 60, 80, 25]\n",
      "note_on channel=0 note=67 velocity=80 time=49      |    [144, 67, 80, 49]\n",
      "note_on channel=0 note=67 velocity=80 time=25      |    [144, 67, 80, 25]\n",
      "note_on channel=0 note=65 velocity=80 time=25      |    [144, 65, 80, 25]\n",
      "note_on channel=0 note=65 velocity=80 time=25      |    [144, 65, 80, 25]\n",
      "note_on channel=0 note=64 velocity=80 time=25      |    [144, 64, 80, 25]\n",
      "note_on channel=0 note=64 velocity=80 time=25      |    [144, 64, 80, 25]\n",
      "note_on channel=0 note=62 velocity=80 time=25      |    [144, 62, 80, 25]\n",
      "note_on channel=0 note=67 velocity=80 time=49      |    [144, 67, 80, 49]\n",
      "note_on channel=0 note=67 velocity=80 time=25      |    [144, 67, 80, 25]\n",
      "note_on channel=0 note=65 velocity=80 time=25      |    [144, 65, 80, 25]\n",
      "note_on channel=0 note=65 velocity=80 time=25      |    [144, 65, 80, 25]\n",
      "note_on channel=0 note=64 velocity=80 time=25      |    [144, 64, 80, 25]\n",
      "note_on channel=0 note=64 velocity=80 time=25      |    [144, 64, 80, 25]\n",
      "note_on channel=0 note=62 velocity=80 time=25      |    [144, 62, 80, 25]\n",
      "note_on channel=0 note=60 velocity=80 time=49      |    [144, 60, 80, 49]\n",
      "note_on channel=0 note=60 velocity=80 time=25      |    [144, 60, 80, 25]\n",
      "note_on channel=0 note=67 velocity=80 time=25      |    [144, 67, 80, 25]\n",
      "note_on channel=0 note=67 velocity=80 time=25      |    [144, 67, 80, 25]\n",
      "note_on channel=0 note=69 velocity=80 time=25      |    [144, 69, 80, 25]\n",
      "note_on channel=0 note=69 velocity=80 time=25      |    [144, 69, 80, 25]\n",
      "note_on channel=0 note=67 velocity=80 time=25      |    [144, 67, 80, 25]\n",
      "note_on channel=0 note=65 velocity=80 time=49      |    [144, 65, 80, 49]\n",
      "note_on channel=0 note=65 velocity=80 time=25      |    [144, 65, 80, 25]\n",
      "note_on channel=0 note=64 velocity=80 time=25      |    [144, 64, 80, 25]\n",
      "note_on channel=0 note=64 velocity=80 time=25      |    [144, 64, 80, 25]\n",
      "note_on channel=0 note=62 velocity=80 time=25      |    [144, 62, 80, 25]\n",
      "note_on channel=0 note=62 velocity=80 time=25      |    [144, 62, 80, 25]\n",
      "note_on channel=0 note=60 velocity=80 time=25      |    [144, 60, 80, 25]\n"
     ]
    }
   ],
   "source": [
    "# bpm60\n",
    "mid_test1 = MidiFile('MIDI/ForTest/Little_Star_bpm60.mid')\n",
    "print('MIDI檔案資訊：',mid_test1)\n",
    "\n",
    "for i, track1 in enumerate(mid_test1.tracks):\n",
    "    print('Track {}: {}'.format(i, track1.name))\n",
    "    print('track : ',track1)        \n",
    "    \n",
    "    for msg in track1:\n",
    "        if msg.type == \"set_tempo\" and i == 0:\n",
    "            print(\"set_tempo:\",msg.tempo,'|',\"tempo:\",tempo2bpm(msg.tempo))\n",
    "            print()\n",
    "           \n",
    "        if msg.type == 'note_on' or msg.type == 'note_off' and i == 1:\n",
    "            velocity = msg.velocity\n",
    "                \n",
    "            if velocity != 0:\n",
    "                time = msg.time\n",
    "                bytes_list = msg.bytes()\n",
    "                bytes_list.append(time)\n",
    "                    \n",
    "                if time < 9:\n",
    "                    print(msg,'      |   ',bytes_list)\n",
    "                elif 9 < time < 99:\n",
    "                    print(msg,'     |   ',bytes_list)\n",
    "                elif 99 <time < 1000:\n",
    "                    print(msg, '   |  ',bytes_list)\n",
    "                elif time > 1000:\n",
    "                    print(msg,'  | ',bytes_list)\n",
    "                count += 1      "
   ]
  },
  {
   "cell_type": "code",
   "execution_count": 19,
   "metadata": {
    "collapsed": true
   },
   "outputs": [
    {
     "name": "stdout",
     "output_type": "stream",
     "text": [
      "MIDI檔案資訊： <midi file 'MIDI/ForTest/Little_Star_bpm100.mid' type 1, 1 tracks, 95 messages>\n",
      "Track 0: \n",
      "track :  <midi track '' 95 messages>\n",
      "set_tempo: 600000 | tempo: 100.0\n",
      "\n",
      "note_on channel=0 note=60 velocity=80 time=0       |    [144, 60, 80, 0]\n",
      "note_on channel=0 note=60 velocity=80 time=25      |    [144, 60, 80, 25]\n",
      "note_on channel=0 note=67 velocity=80 time=25      |    [144, 67, 80, 25]\n",
      "note_on channel=0 note=67 velocity=80 time=25      |    [144, 67, 80, 25]\n",
      "note_on channel=0 note=69 velocity=80 time=25      |    [144, 69, 80, 25]\n",
      "note_on channel=0 note=69 velocity=80 time=25      |    [144, 69, 80, 25]\n",
      "note_on channel=0 note=67 velocity=80 time=25      |    [144, 67, 80, 25]\n",
      "note_on channel=0 note=65 velocity=80 time=49      |    [144, 65, 80, 49]\n",
      "note_on channel=0 note=65 velocity=80 time=25      |    [144, 65, 80, 25]\n",
      "note_on channel=0 note=64 velocity=80 time=25      |    [144, 64, 80, 25]\n",
      "note_on channel=0 note=64 velocity=80 time=25      |    [144, 64, 80, 25]\n",
      "note_on channel=0 note=62 velocity=80 time=25      |    [144, 62, 80, 25]\n",
      "note_on channel=0 note=62 velocity=80 time=25      |    [144, 62, 80, 25]\n",
      "note_on channel=0 note=60 velocity=80 time=25      |    [144, 60, 80, 25]\n",
      "note_on channel=0 note=67 velocity=80 time=49      |    [144, 67, 80, 49]\n",
      "note_on channel=0 note=67 velocity=80 time=25      |    [144, 67, 80, 25]\n",
      "note_on channel=0 note=65 velocity=80 time=25      |    [144, 65, 80, 25]\n",
      "note_on channel=0 note=65 velocity=80 time=25      |    [144, 65, 80, 25]\n",
      "note_on channel=0 note=64 velocity=80 time=25      |    [144, 64, 80, 25]\n",
      "note_on channel=0 note=64 velocity=80 time=25      |    [144, 64, 80, 25]\n",
      "note_on channel=0 note=62 velocity=80 time=25      |    [144, 62, 80, 25]\n",
      "note_on channel=0 note=67 velocity=80 time=49      |    [144, 67, 80, 49]\n",
      "note_on channel=0 note=67 velocity=80 time=25      |    [144, 67, 80, 25]\n",
      "note_on channel=0 note=65 velocity=80 time=25      |    [144, 65, 80, 25]\n",
      "note_on channel=0 note=65 velocity=80 time=25      |    [144, 65, 80, 25]\n",
      "note_on channel=0 note=64 velocity=80 time=25      |    [144, 64, 80, 25]\n",
      "note_on channel=0 note=64 velocity=80 time=25      |    [144, 64, 80, 25]\n",
      "note_on channel=0 note=62 velocity=80 time=25      |    [144, 62, 80, 25]\n",
      "note_on channel=0 note=60 velocity=80 time=49      |    [144, 60, 80, 49]\n",
      "note_on channel=0 note=60 velocity=80 time=25      |    [144, 60, 80, 25]\n",
      "note_on channel=0 note=67 velocity=80 time=25      |    [144, 67, 80, 25]\n",
      "note_on channel=0 note=67 velocity=80 time=25      |    [144, 67, 80, 25]\n",
      "note_on channel=0 note=69 velocity=80 time=25      |    [144, 69, 80, 25]\n",
      "note_on channel=0 note=69 velocity=80 time=25      |    [144, 69, 80, 25]\n",
      "note_on channel=0 note=67 velocity=80 time=25      |    [144, 67, 80, 25]\n",
      "note_on channel=0 note=65 velocity=80 time=49      |    [144, 65, 80, 49]\n",
      "note_on channel=0 note=65 velocity=80 time=25      |    [144, 65, 80, 25]\n",
      "note_on channel=0 note=64 velocity=80 time=25      |    [144, 64, 80, 25]\n",
      "note_on channel=0 note=64 velocity=80 time=25      |    [144, 64, 80, 25]\n",
      "note_on channel=0 note=62 velocity=80 time=25      |    [144, 62, 80, 25]\n",
      "note_on channel=0 note=62 velocity=80 time=25      |    [144, 62, 80, 25]\n",
      "note_on channel=0 note=60 velocity=80 time=25      |    [144, 60, 80, 25]\n"
     ]
    }
   ],
   "source": [
    "# bpm100\n",
    "mid_test2 = MidiFile('MIDI/ForTest/Little_Star_bpm100.mid')\n",
    "print('MIDI檔案資訊：',mid_test2)\n",
    "\n",
    "for i, track2 in enumerate(mid_test2.tracks):\n",
    "    print('Track {}: {}'.format(i, track2.name))\n",
    "    print('track : ',track2)        \n",
    "    \n",
    "    for msg in track2:\n",
    "        if msg.type == \"set_tempo\" and i == 0:\n",
    "            print(\"set_tempo:\",msg.tempo,'|',\"tempo:\",tempo2bpm(msg.tempo))\n",
    "            print()\n",
    "           \n",
    "        if msg.type == 'note_on' or msg.type == 'note_off' and i == 1:\n",
    "            velocity = msg.velocity\n",
    "                \n",
    "            if velocity != 0:\n",
    "                time = msg.time\n",
    "                bytes_list = msg.bytes()\n",
    "                bytes_list.append(time)\n",
    "                    \n",
    "                if time < 9:\n",
    "                    print(msg,'      |   ',bytes_list)\n",
    "                elif 9 < time < 99:\n",
    "                    print(msg,'     |   ',bytes_list)\n",
    "                elif 99 <time < 1000:\n",
    "                    print(msg, '   |  ',bytes_list)\n",
    "                elif time > 1000:\n",
    "                    print(msg,'  | ',bytes_list)\n",
    "                count += 1      "
   ]
  },
  {
   "cell_type": "markdown",
   "metadata": {},
   "source": [
    "# 測試不同BPM的midi檔案(8notes)"
   ]
  },
  {
   "cell_type": "code",
   "execution_count": 20,
   "metadata": {},
   "outputs": [
    {
     "name": "stdout",
     "output_type": "stream",
     "text": [
      "MIDI檔案資訊： <midi file 'MIDI/MIDI - twinkle_twinkle.mid' type 1, 2 tracks, 156 messages>\n",
      "Track 0: Twinke Twinkle Little Star\n",
      "track :  <midi track 'Twinke Twinkle Little Star' 6 messages>\n",
      "set_tempo: 600000 | tempo: 100.0\n",
      "\n",
      "Track 1: \n",
      "track :  <midi track '' 150 messages>\n",
      "note_on channel=0 note=60 velocity=69 time=0\n",
      "note_on channel=0 note=48 velocity=65 time=0\n",
      "note_off channel=0 note=60 velocity=0 time=960\n",
      "note_on channel=0 note=60 velocity=76 time=0\n",
      "note_off channel=0 note=60 velocity=0 time=960\n",
      "note_on channel=0 note=67 velocity=87 time=0\n",
      "note_off channel=0 note=48 velocity=0 time=0\n",
      "note_on channel=0 note=52 velocity=76 time=0\n",
      "note_off channel=0 note=67 velocity=0 time=960\n",
      "note_on channel=0 note=67 velocity=81 time=0\n",
      "note_off channel=0 note=67 velocity=0 time=960\n",
      "note_on channel=0 note=69 velocity=80 time=0\n",
      "note_off channel=0 note=52 velocity=0 time=0\n",
      "note_on channel=0 note=53 velocity=76 time=0\n",
      "note_off channel=0 note=69 velocity=0 time=960\n",
      "note_on channel=0 note=69 velocity=77 time=0\n",
      "note_off channel=0 note=69 velocity=0 time=960\n",
      "note_on channel=0 note=67 velocity=76 time=0\n",
      "note_off channel=0 note=53 velocity=0 time=0\n",
      "note_on channel=0 note=52 velocity=77 time=0\n",
      "note_off channel=0 note=67 velocity=0 time=1920\n",
      "note_on channel=0 note=65 velocity=67 time=0\n",
      "note_off channel=0 note=52 velocity=0 time=0\n",
      "note_on channel=0 note=50 velocity=76 time=0\n",
      "note_off channel=0 note=65 velocity=0 time=960\n",
      "note_on channel=0 note=65 velocity=74 time=0\n",
      "note_off channel=0 note=65 velocity=0 time=960\n",
      "note_on channel=0 note=64 velocity=73 time=0\n",
      "note_off channel=0 note=50 velocity=0 time=0\n",
      "note_on channel=0 note=48 velocity=75 time=0\n",
      "note_off channel=0 note=64 velocity=0 time=960\n",
      "note_on channel=0 note=64 velocity=74 time=0\n",
      "note_off channel=0 note=64 velocity=0 time=960\n",
      "note_on channel=0 note=62 velocity=71 time=0\n",
      "note_off channel=0 note=48 velocity=0 time=0\n",
      "note_on channel=0 note=53 velocity=81 time=0\n",
      "note_off channel=0 note=62 velocity=0 time=960\n",
      "note_on channel=0 note=62 velocity=77 time=0\n",
      "note_off channel=0 note=53 velocity=0 time=0\n",
      "note_on channel=0 note=55 velocity=78 time=0\n",
      "note_off channel=0 note=62 velocity=0 time=960\n",
      "note_on channel=0 note=60 velocity=68 time=0\n",
      "note_off channel=0 note=55 velocity=0 time=0\n",
      "note_on channel=0 note=52 velocity=70 time=0\n",
      "note_off channel=0 note=52 velocity=0 time=960\n",
      "note_on channel=0 note=48 velocity=72 time=0\n",
      "note_off channel=0 note=60 velocity=0 time=960\n",
      "note_on channel=0 note=67 velocity=87 time=0\n",
      "note_off channel=0 note=48 velocity=0 time=0\n",
      "note_on channel=0 note=52 velocity=84 time=0\n",
      "note_off channel=0 note=67 velocity=0 time=960\n",
      "note_on channel=0 note=67 velocity=78 time=0\n",
      "note_off channel=0 note=67 velocity=0 time=960\n",
      "note_on channel=0 note=65 velocity=68 time=0\n",
      "note_off channel=0 note=52 velocity=0 time=0\n",
      "note_on channel=0 note=53 velocity=76 time=0\n",
      "note_off channel=0 note=65 velocity=0 time=960\n",
      "note_on channel=0 note=65 velocity=72 time=0\n",
      "note_off channel=0 note=65 velocity=0 time=960\n",
      "note_on channel=0 note=64 velocity=74 time=0\n",
      "note_off channel=0 note=53 velocity=0 time=0\n",
      "note_on channel=0 note=55 velocity=83 time=0\n",
      "note_off channel=0 note=64 velocity=0 time=960\n",
      "note_on channel=0 note=64 velocity=75 time=0\n",
      "note_off channel=0 note=64 velocity=0 time=960\n",
      "note_on channel=0 note=62 velocity=74 time=0\n",
      "note_off channel=0 note=55 velocity=0 time=0\n",
      "note_on channel=0 note=55 velocity=76 time=0\n",
      "note_off channel=0 note=62 velocity=0 time=1920\n",
      "note_on channel=0 note=67 velocity=87 time=0\n",
      "note_off channel=0 note=55 velocity=0 time=0\n",
      "note_on channel=0 note=52 velocity=71 time=0\n",
      "note_off channel=0 note=67 velocity=0 time=960\n",
      "note_on channel=0 note=67 velocity=81 time=0\n",
      "note_off channel=0 note=67 velocity=0 time=960\n",
      "note_on channel=0 note=65 velocity=68 time=0\n",
      "note_off channel=0 note=52 velocity=0 time=0\n",
      "note_on channel=0 note=53 velocity=77 time=0\n",
      "note_off channel=0 note=65 velocity=0 time=960\n",
      "note_on channel=0 note=65 velocity=75 time=0\n",
      "note_off channel=0 note=65 velocity=0 time=960\n",
      "note_on channel=0 note=64 velocity=77 time=0\n",
      "note_off channel=0 note=53 velocity=0 time=0\n",
      "note_on channel=0 note=55 velocity=80 time=0\n",
      "note_off channel=0 note=64 velocity=0 time=960\n",
      "note_on channel=0 note=64 velocity=77 time=0\n",
      "note_off channel=0 note=64 velocity=0 time=960\n",
      "note_on channel=0 note=62 velocity=72 time=0\n",
      "note_off channel=0 note=55 velocity=0 time=0\n",
      "note_on channel=0 note=55 velocity=74 time=0\n",
      "note_off channel=0 note=62 velocity=0 time=1920\n",
      "note_on channel=0 note=60 velocity=73 time=0\n",
      "note_off channel=0 note=55 velocity=0 time=0\n",
      "note_on channel=0 note=48 velocity=73 time=0\n",
      "note_off channel=0 note=60 velocity=0 time=960\n",
      "note_on channel=0 note=60 velocity=74 time=0\n",
      "note_off channel=0 note=60 velocity=0 time=960\n",
      "note_on channel=0 note=67 velocity=85 time=0\n",
      "note_off channel=0 note=48 velocity=0 time=0\n",
      "note_on channel=0 note=52 velocity=85 time=0\n",
      "note_off channel=0 note=67 velocity=0 time=960\n",
      "note_on channel=0 note=67 velocity=79 time=0\n",
      "note_off channel=0 note=67 velocity=0 time=960\n",
      "note_on channel=0 note=69 velocity=79 time=0\n",
      "note_off channel=0 note=52 velocity=0 time=0\n",
      "note_on channel=0 note=53 velocity=84 time=0\n",
      "note_off channel=0 note=69 velocity=0 time=960\n",
      "note_on channel=0 note=69 velocity=77 time=0\n",
      "note_off channel=0 note=69 velocity=0 time=960\n",
      "note_on channel=0 note=67 velocity=69 time=0\n",
      "note_off channel=0 note=53 velocity=0 time=0\n",
      "note_on channel=0 note=52 velocity=74 time=0\n",
      "note_off channel=0 note=67 velocity=0 time=1920\n",
      "note_on channel=0 note=65 velocity=74 time=0\n",
      "note_off channel=0 note=52 velocity=0 time=0\n",
      "note_on channel=0 note=50 velocity=79 time=0\n",
      "note_off channel=0 note=65 velocity=0 time=960\n",
      "note_on channel=0 note=65 velocity=77 time=0\n",
      "note_off channel=0 note=65 velocity=0 time=960\n",
      "note_on channel=0 note=64 velocity=76 time=0\n",
      "note_off channel=0 note=50 velocity=0 time=0\n",
      "note_on channel=0 note=48 velocity=74 time=0\n",
      "note_off channel=0 note=64 velocity=0 time=960\n",
      "note_on channel=0 note=64 velocity=76 time=0\n",
      "note_off channel=0 note=64 velocity=0 time=960\n",
      "note_on channel=0 note=62 velocity=73 time=0\n",
      "note_off channel=0 note=48 velocity=0 time=0\n",
      "note_on channel=0 note=53 velocity=80 time=0\n",
      "note_off channel=0 note=62 velocity=0 time=960\n",
      "note_on channel=0 note=62 velocity=77 time=0\n",
      "note_off channel=0 note=53 velocity=0 time=0\n",
      "note_on channel=0 note=55 velocity=81 time=0\n",
      "note_off channel=0 note=62 velocity=0 time=960\n",
      "note_on channel=0 note=60 velocity=71 time=0\n",
      "note_off channel=0 note=55 velocity=0 time=0\n",
      "note_on channel=0 note=48 velocity=69 time=0\n",
      "note_off channel=0 note=60 velocity=0 time=1920\n",
      "note_off channel=0 note=48 velocity=0 time=0\n"
     ]
    }
   ],
   "source": [
    "# bpm100\n",
    "mid_test1 = MidiFile('MIDI/MIDI - twinkle_twinkle.mid')\n",
    "print('MIDI檔案資訊：',mid_test1)\n",
    "count = 0\n",
    "\n",
    "for i, track1 in enumerate(mid_test1.tracks):\n",
    "    print('Track {}: {}'.format(i, track1.name))\n",
    "    print('track : ',track1)        \n",
    "    \n",
    "    for msg in track1:\n",
    "        #print(msg)\n",
    "        if msg.type == \"set_tempo\" and i == 0:\n",
    "            print(\"set_tempo:\",msg.tempo,'|',\"tempo:\",tempo2bpm(msg.tempo))\n",
    "            print()\n",
    "           \n",
    "        if msg.type == 'note_on' or msg.type == 'note_off' and i == 1:\n",
    "            velocity = msg.velocity\n",
    "                \n",
    "            if velocity == 0 or velocity != 0:\n",
    "                time = msg.time\n",
    "                bytes_list = msg.bytes()\n",
    "                bytes_list.append(time)\n",
    "                print(msg)\n",
    "                \n",
    "                # 印出前5筆\n",
    "                #if count <= 5:\n",
    "                    #if time < 9:\n",
    "                        #print(msg,'     |  ',bytes_list)\n",
    "                    #elif 9 < time < 99:\n",
    "                        #print(msg,'     |   ',bytes_list)\n",
    "                    #elif 99 <time < 1000:\n",
    "                        #print(msg, '   |  ',bytes_list)\n",
    "                    #elif time > 1000:\n",
    "                        #print(msg,'  |  ',bytes_list)\n",
    "                count += 1      "
   ]
  },
  {
   "cell_type": "code",
   "execution_count": 21,
   "metadata": {
    "scrolled": true
   },
   "outputs": [
    {
     "name": "stdout",
     "output_type": "stream",
     "text": [
      "MIDI檔案資訊： <midi file 'MIDI/MIDI - silent_night_easy.mid' type 1, 2 tracks, 165 messages>\n",
      "Track 0: \n",
      "track :  <midi track '' 4 messages>\n",
      "set_tempo: 600000 | tempo: 100.0\n",
      "\n",
      "Track 1: Piano\n",
      "track :  <midi track 'Piano' 161 messages>\n",
      "note_on channel=0 note=67 velocity=53 time=0\n",
      "note_on channel=0 note=60 velocity=53 time=0\n",
      "note_on channel=0 note=69 velocity=56 time=384\n",
      "note_off channel=0 note=67 velocity=0 time=7\n",
      "note_on channel=0 note=67 velocity=61 time=121\n",
      "note_off channel=0 note=69 velocity=0 time=2\n",
      "note_on channel=0 note=64 velocity=54 time=254\n",
      "note_off channel=0 note=60 velocity=0 time=0\n",
      "note_on channel=0 note=60 velocity=57 time=0\n",
      "note_off channel=0 note=67 velocity=0 time=5\n",
      "note_on channel=0 note=67 velocity=65 time=763\n",
      "note_off channel=0 note=60 velocity=0 time=0\n",
      "note_on channel=0 note=60 velocity=64 time=0\n",
      "note_off channel=0 note=64 velocity=0 time=15\n",
      "note_on channel=0 note=69 velocity=67 time=369\n",
      "note_off channel=0 note=67 velocity=0 time=7\n",
      "note_on channel=0 note=67 velocity=58 time=121\n",
      "note_off channel=0 note=69 velocity=0 time=2\n",
      "note_on channel=0 note=64 velocity=51 time=254\n",
      "note_off channel=0 note=60 velocity=0 time=0\n",
      "note_on channel=0 note=60 velocity=61 time=0\n",
      "note_off channel=0 note=67 velocity=0 time=5\n",
      "note_off channel=0 note=60 velocity=0 time=251\n",
      "note_on channel=0 note=59 velocity=61 time=0\n",
      "note_off channel=0 note=59 velocity=0 time=256\n",
      "note_on channel=0 note=57 velocity=61 time=0\n",
      "note_off channel=0 note=64 velocity=0 time=217\n",
      "note_on channel=0 note=74 velocity=71 time=39\n",
      "note_off channel=0 note=57 velocity=0 time=0\n",
      "note_on channel=0 note=55 velocity=58 time=0\n",
      "note_off channel=0 note=74 velocity=0 time=512\n",
      "note_on channel=0 note=74 velocity=66 time=0\n",
      "note_on channel=0 note=71 velocity=58 time=256\n",
      "note_off channel=0 note=55 velocity=0 time=0\n",
      "note_on channel=0 note=55 velocity=55 time=0\n",
      "note_off channel=0 note=74 velocity=0 time=5\n",
      "note_off channel=0 note=55 velocity=0 time=507\n",
      "note_on channel=0 note=55 velocity=61 time=0\n",
      "note_on channel=0 note=72 velocity=58 time=256\n",
      "note_off channel=0 note=55 velocity=0 time=0\n",
      "note_on channel=0 note=60 velocity=71 time=0\n",
      "note_off channel=0 note=71 velocity=0 time=15\n",
      "note_off channel=0 note=72 velocity=0 time=497\n",
      "note_on channel=0 note=72 velocity=59 time=0\n",
      "note_on channel=0 note=67 velocity=49 time=256\n",
      "note_off channel=0 note=60 velocity=0 time=0\n",
      "note_on channel=0 note=60 velocity=62 time=0\n",
      "note_off channel=0 note=72 velocity=0 time=5\n",
      "note_off channel=0 note=67 velocity=0 time=724\n",
      "note_on channel=0 note=69 velocity=59 time=39\n",
      "note_off channel=0 note=60 velocity=0 time=0\n",
      "note_on channel=0 note=53 velocity=54 time=0\n",
      "note_off channel=0 note=69 velocity=0 time=512\n",
      "note_on channel=0 note=69 velocity=63 time=0\n",
      "note_on channel=0 note=72 velocity=72 time=256\n",
      "note_off channel=0 note=53 velocity=0 time=0\n",
      "note_on channel=0 note=53 velocity=59 time=0\n",
      "note_off channel=0 note=69 velocity=0 time=5\n",
      "note_on channel=0 note=71 velocity=55 time=379\n",
      "note_off channel=0 note=72 velocity=0 time=7\n",
      "note_on channel=0 note=69 velocity=48 time=121\n",
      "note_off channel=0 note=71 velocity=0 time=2\n",
      "note_on channel=0 note=67 velocity=59 time=254\n",
      "note_off channel=0 note=53 velocity=0 time=0\n",
      "note_on channel=0 note=60 velocity=72 time=0\n",
      "note_off channel=0 note=69 velocity=0 time=5\n",
      "note_on channel=0 note=69 velocity=61 time=379\n",
      "note_off channel=0 note=67 velocity=0 time=7\n",
      "note_on channel=0 note=67 velocity=67 time=121\n",
      "note_off channel=0 note=69 velocity=0 time=2\n",
      "note_on channel=0 note=64 velocity=66 time=254\n",
      "note_off channel=0 note=60 velocity=0 time=0\n",
      "note_on channel=0 note=60 velocity=65 time=0\n",
      "note_off channel=0 note=67 velocity=0 time=5\n",
      "note_off channel=0 note=64 velocity=0 time=724\n",
      "note_on channel=0 note=69 velocity=63 time=39\n",
      "note_off channel=0 note=60 velocity=0 time=0\n",
      "note_on channel=0 note=53 velocity=59 time=0\n",
      "note_off channel=0 note=69 velocity=0 time=512\n",
      "note_on channel=0 note=69 velocity=62 time=0\n",
      "note_on channel=0 note=72 velocity=70 time=256\n",
      "note_off channel=0 note=53 velocity=0 time=0\n",
      "note_on channel=0 note=53 velocity=57 time=0\n",
      "note_off channel=0 note=69 velocity=0 time=5\n",
      "note_on channel=0 note=71 velocity=60 time=379\n",
      "note_off channel=0 note=72 velocity=0 time=7\n",
      "note_on channel=0 note=69 velocity=53 time=121\n",
      "note_off channel=0 note=71 velocity=0 time=2\n",
      "note_on channel=0 note=67 velocity=59 time=254\n",
      "note_off channel=0 note=53 velocity=0 time=0\n",
      "note_on channel=0 note=60 velocity=68 time=0\n",
      "note_off channel=0 note=69 velocity=0 time=5\n",
      "note_on channel=0 note=69 velocity=62 time=379\n",
      "note_off channel=0 note=67 velocity=0 time=7\n",
      "note_on channel=0 note=67 velocity=60 time=121\n",
      "note_off channel=0 note=69 velocity=0 time=2\n",
      "note_on channel=0 note=64 velocity=51 time=254\n",
      "note_off channel=0 note=60 velocity=0 time=0\n",
      "note_on channel=0 note=60 velocity=58 time=0\n",
      "note_off channel=0 note=67 velocity=0 time=5\n",
      "note_off channel=0 note=60 velocity=0 time=251\n",
      "note_on channel=0 note=59 velocity=55 time=0\n",
      "note_off channel=0 note=59 velocity=0 time=256\n",
      "note_on channel=0 note=57 velocity=60 time=0\n",
      "note_off channel=0 note=64 velocity=0 time=217\n",
      "note_on channel=0 note=74 velocity=74 time=39\n",
      "note_off channel=0 note=57 velocity=0 time=0\n",
      "note_on channel=0 note=55 velocity=57 time=0\n",
      "note_off channel=0 note=74 velocity=0 time=512\n",
      "note_on channel=0 note=74 velocity=68 time=0\n",
      "note_on channel=0 note=77 velocity=72 time=256\n",
      "note_off channel=0 note=55 velocity=0 time=0\n",
      "note_on channel=0 note=55 velocity=67 time=0\n",
      "note_off channel=0 note=74 velocity=0 time=5\n",
      "note_on channel=0 note=74 velocity=59 time=251\n",
      "note_off channel=0 note=77 velocity=0 time=5\n",
      "note_on channel=0 note=71 velocity=64 time=251\n",
      "note_off channel=0 note=74 velocity=0 time=5\n",
      "note_on channel=0 note=72 velocity=80 time=251\n",
      "note_off channel=0 note=55 velocity=0 time=0\n",
      "note_on channel=0 note=60 velocity=83 time=0\n",
      "note_off channel=0 note=71 velocity=0 time=5\n",
      "note_on channel=0 note=76 velocity=76 time=763\n",
      "note_off channel=0 note=60 velocity=0 time=0\n",
      "note_on channel=0 note=60 velocity=66 time=0\n",
      "note_off channel=0 note=72 velocity=0 time=15\n",
      "note_off channel=0 note=76 velocity=0 time=714\n",
      "note_on channel=0 note=72 velocity=53 time=39\n",
      "note_off channel=0 note=60 velocity=0 time=0\n",
      "note_on channel=0 note=60 velocity=64 time=0\n",
      "note_on channel=0 note=67 velocity=45 time=256\n",
      "note_off channel=0 note=72 velocity=0 time=5\n",
      "note_on channel=0 note=64 velocity=58 time=251\n",
      "note_off channel=0 note=67 velocity=0 time=5\n",
      "note_on channel=0 note=67 velocity=62 time=251\n",
      "note_off channel=0 note=60 velocity=0 time=0\n",
      "note_on channel=0 note=55 velocity=56 time=0\n",
      "note_off channel=0 note=64 velocity=0 time=5\n",
      "note_on channel=0 note=65 velocity=55 time=379\n",
      "note_off channel=0 note=67 velocity=0 time=7\n",
      "note_on channel=0 note=62 velocity=47 time=121\n",
      "note_off channel=0 note=65 velocity=0 time=2\n",
      "note_on channel=0 note=60 velocity=59 time=254\n",
      "note_off channel=0 note=55 velocity=0 time=0\n",
      "note_on channel=0 note=60 velocity=68 time=0\n",
      "note_off channel=0 note=62 velocity=0 time=5\n",
      "note_off channel=0 note=60 velocity=0 time=724\n",
      "note_off channel=0 note=60 velocity=0 time=39\n"
     ]
    }
   ],
   "source": [
    "# bpm60\n",
    "mid_test1 = MidiFile('MIDI/MIDI - silent_night_easy.mid')\n",
    "print('MIDI檔案資訊：',mid_test1)\n",
    "count = 0\n",
    "\n",
    "for i, track1 in enumerate(mid_test1.tracks):\n",
    "    print('Track {}: {}'.format(i, track1.name))\n",
    "    print('track : ',track1)        \n",
    "    \n",
    "    for msg in track1:\n",
    "        #print(msg)\n",
    "        if msg.type == \"set_tempo\" and i == 0:\n",
    "            print(\"set_tempo:\",msg.tempo,'|',\"tempo:\",tempo2bpm(msg.tempo))\n",
    "            print()\n",
    "           \n",
    "        if msg.type == 'note_on' or msg.type == 'note_off' and i == 1:\n",
    "            velocity = msg.velocity\n",
    "                \n",
    "            if velocity == 0 or velocity != 0:\n",
    "                time = msg.time\n",
    "                bytes_list = msg.bytes()\n",
    "                bytes_list.append(time)\n",
    "                print(msg)\n",
    "                \n",
    "                # 印出前5筆\n",
    "                #if count <= 5:\n",
    "                    #if time < 9:\n",
    "                        #print(msg,'     |  ',bytes_list)\n",
    "                    #elif 9 < time < 99:\n",
    "                        #print(msg,'    |   ',bytes_list)\n",
    "                    #elif 99 <time < 1000:\n",
    "                        #print(msg, '   |  ',bytes_list)\n",
    "                    #elif time > 1000:\n",
    "                        #print(msg,'  |  ',bytes_list)\n",
    "                count += 1      "
   ]
  },
  {
   "cell_type": "markdown",
   "metadata": {},
   "source": [
    "# 相同旋律再用Musescore匯出分析"
   ]
  },
  {
   "cell_type": "code",
   "execution_count": 22,
   "metadata": {},
   "outputs": [
    {
     "name": "stdout",
     "output_type": "stream",
     "text": [
      "MIDI檔案資訊： <midi file 'MIDI/MIDI - silent_night_easy.mid' type 1, 2 tracks, 165 messages>\n",
      "Track 0: \n",
      "track :  <midi track '' 4 messages>\n",
      "set_tempo: 600000 | tempo: 100.0\n",
      "\n",
      "Track 1: Piano\n",
      "track :  <midi track 'Piano' 161 messages>\n",
      "note_on channel=0 note=67 velocity=53 time=0\n",
      "note_on channel=0 note=60 velocity=53 time=0\n",
      "note_on channel=0 note=69 velocity=56 time=384\n",
      "note_off channel=0 note=67 velocity=0 time=7\n",
      "note_on channel=0 note=67 velocity=61 time=121\n",
      "note_off channel=0 note=69 velocity=0 time=2\n",
      "note_on channel=0 note=64 velocity=54 time=254\n",
      "note_off channel=0 note=60 velocity=0 time=0\n",
      "note_on channel=0 note=60 velocity=57 time=0\n",
      "note_off channel=0 note=67 velocity=0 time=5\n",
      "note_on channel=0 note=67 velocity=65 time=763\n",
      "note_off channel=0 note=60 velocity=0 time=0\n",
      "note_on channel=0 note=60 velocity=64 time=0\n",
      "note_off channel=0 note=64 velocity=0 time=15\n",
      "note_on channel=0 note=69 velocity=67 time=369\n",
      "note_off channel=0 note=67 velocity=0 time=7\n",
      "note_on channel=0 note=67 velocity=58 time=121\n",
      "note_off channel=0 note=69 velocity=0 time=2\n",
      "note_on channel=0 note=64 velocity=51 time=254\n",
      "note_off channel=0 note=60 velocity=0 time=0\n",
      "note_on channel=0 note=60 velocity=61 time=0\n",
      "note_off channel=0 note=67 velocity=0 time=5\n",
      "note_off channel=0 note=60 velocity=0 time=251\n",
      "note_on channel=0 note=59 velocity=61 time=0\n",
      "note_off channel=0 note=59 velocity=0 time=256\n",
      "note_on channel=0 note=57 velocity=61 time=0\n",
      "note_off channel=0 note=64 velocity=0 time=217\n",
      "note_on channel=0 note=74 velocity=71 time=39\n",
      "note_off channel=0 note=57 velocity=0 time=0\n",
      "note_on channel=0 note=55 velocity=58 time=0\n",
      "note_off channel=0 note=74 velocity=0 time=512\n",
      "note_on channel=0 note=74 velocity=66 time=0\n",
      "note_on channel=0 note=71 velocity=58 time=256\n",
      "note_off channel=0 note=55 velocity=0 time=0\n",
      "note_on channel=0 note=55 velocity=55 time=0\n",
      "note_off channel=0 note=74 velocity=0 time=5\n",
      "note_off channel=0 note=55 velocity=0 time=507\n",
      "note_on channel=0 note=55 velocity=61 time=0\n",
      "note_on channel=0 note=72 velocity=58 time=256\n",
      "note_off channel=0 note=55 velocity=0 time=0\n",
      "note_on channel=0 note=60 velocity=71 time=0\n",
      "note_off channel=0 note=71 velocity=0 time=15\n",
      "note_off channel=0 note=72 velocity=0 time=497\n",
      "note_on channel=0 note=72 velocity=59 time=0\n",
      "note_on channel=0 note=67 velocity=49 time=256\n",
      "note_off channel=0 note=60 velocity=0 time=0\n",
      "note_on channel=0 note=60 velocity=62 time=0\n",
      "note_off channel=0 note=72 velocity=0 time=5\n",
      "note_off channel=0 note=67 velocity=0 time=724\n",
      "note_on channel=0 note=69 velocity=59 time=39\n",
      "note_off channel=0 note=60 velocity=0 time=0\n",
      "note_on channel=0 note=53 velocity=54 time=0\n",
      "note_off channel=0 note=69 velocity=0 time=512\n",
      "note_on channel=0 note=69 velocity=63 time=0\n",
      "note_on channel=0 note=72 velocity=72 time=256\n",
      "note_off channel=0 note=53 velocity=0 time=0\n",
      "note_on channel=0 note=53 velocity=59 time=0\n",
      "note_off channel=0 note=69 velocity=0 time=5\n",
      "note_on channel=0 note=71 velocity=55 time=379\n",
      "note_off channel=0 note=72 velocity=0 time=7\n",
      "note_on channel=0 note=69 velocity=48 time=121\n",
      "note_off channel=0 note=71 velocity=0 time=2\n",
      "note_on channel=0 note=67 velocity=59 time=254\n",
      "note_off channel=0 note=53 velocity=0 time=0\n",
      "note_on channel=0 note=60 velocity=72 time=0\n",
      "note_off channel=0 note=69 velocity=0 time=5\n",
      "note_on channel=0 note=69 velocity=61 time=379\n",
      "note_off channel=0 note=67 velocity=0 time=7\n",
      "note_on channel=0 note=67 velocity=67 time=121\n",
      "note_off channel=0 note=69 velocity=0 time=2\n",
      "note_on channel=0 note=64 velocity=66 time=254\n",
      "note_off channel=0 note=60 velocity=0 time=0\n",
      "note_on channel=0 note=60 velocity=65 time=0\n",
      "note_off channel=0 note=67 velocity=0 time=5\n",
      "note_off channel=0 note=64 velocity=0 time=724\n",
      "note_on channel=0 note=69 velocity=63 time=39\n",
      "note_off channel=0 note=60 velocity=0 time=0\n",
      "note_on channel=0 note=53 velocity=59 time=0\n",
      "note_off channel=0 note=69 velocity=0 time=512\n",
      "note_on channel=0 note=69 velocity=62 time=0\n",
      "note_on channel=0 note=72 velocity=70 time=256\n",
      "note_off channel=0 note=53 velocity=0 time=0\n",
      "note_on channel=0 note=53 velocity=57 time=0\n",
      "note_off channel=0 note=69 velocity=0 time=5\n",
      "note_on channel=0 note=71 velocity=60 time=379\n",
      "note_off channel=0 note=72 velocity=0 time=7\n",
      "note_on channel=0 note=69 velocity=53 time=121\n",
      "note_off channel=0 note=71 velocity=0 time=2\n",
      "note_on channel=0 note=67 velocity=59 time=254\n",
      "note_off channel=0 note=53 velocity=0 time=0\n",
      "note_on channel=0 note=60 velocity=68 time=0\n",
      "note_off channel=0 note=69 velocity=0 time=5\n",
      "note_on channel=0 note=69 velocity=62 time=379\n",
      "note_off channel=0 note=67 velocity=0 time=7\n",
      "note_on channel=0 note=67 velocity=60 time=121\n",
      "note_off channel=0 note=69 velocity=0 time=2\n",
      "note_on channel=0 note=64 velocity=51 time=254\n",
      "note_off channel=0 note=60 velocity=0 time=0\n",
      "note_on channel=0 note=60 velocity=58 time=0\n",
      "note_off channel=0 note=67 velocity=0 time=5\n",
      "note_off channel=0 note=60 velocity=0 time=251\n",
      "note_on channel=0 note=59 velocity=55 time=0\n",
      "note_off channel=0 note=59 velocity=0 time=256\n",
      "note_on channel=0 note=57 velocity=60 time=0\n",
      "note_off channel=0 note=64 velocity=0 time=217\n",
      "note_on channel=0 note=74 velocity=74 time=39\n",
      "note_off channel=0 note=57 velocity=0 time=0\n",
      "note_on channel=0 note=55 velocity=57 time=0\n",
      "note_off channel=0 note=74 velocity=0 time=512\n",
      "note_on channel=0 note=74 velocity=68 time=0\n",
      "note_on channel=0 note=77 velocity=72 time=256\n",
      "note_off channel=0 note=55 velocity=0 time=0\n",
      "note_on channel=0 note=55 velocity=67 time=0\n",
      "note_off channel=0 note=74 velocity=0 time=5\n",
      "note_on channel=0 note=74 velocity=59 time=251\n",
      "note_off channel=0 note=77 velocity=0 time=5\n",
      "note_on channel=0 note=71 velocity=64 time=251\n",
      "note_off channel=0 note=74 velocity=0 time=5\n",
      "note_on channel=0 note=72 velocity=80 time=251\n",
      "note_off channel=0 note=55 velocity=0 time=0\n",
      "note_on channel=0 note=60 velocity=83 time=0\n",
      "note_off channel=0 note=71 velocity=0 time=5\n",
      "note_on channel=0 note=76 velocity=76 time=763\n",
      "note_off channel=0 note=60 velocity=0 time=0\n",
      "note_on channel=0 note=60 velocity=66 time=0\n",
      "note_off channel=0 note=72 velocity=0 time=15\n",
      "note_off channel=0 note=76 velocity=0 time=714\n",
      "note_on channel=0 note=72 velocity=53 time=39\n",
      "note_off channel=0 note=60 velocity=0 time=0\n",
      "note_on channel=0 note=60 velocity=64 time=0\n",
      "note_on channel=0 note=67 velocity=45 time=256\n",
      "note_off channel=0 note=72 velocity=0 time=5\n",
      "note_on channel=0 note=64 velocity=58 time=251\n",
      "note_off channel=0 note=67 velocity=0 time=5\n",
      "note_on channel=0 note=67 velocity=62 time=251\n",
      "note_off channel=0 note=60 velocity=0 time=0\n",
      "note_on channel=0 note=55 velocity=56 time=0\n",
      "note_off channel=0 note=64 velocity=0 time=5\n",
      "note_on channel=0 note=65 velocity=55 time=379\n",
      "note_off channel=0 note=67 velocity=0 time=7\n",
      "note_on channel=0 note=62 velocity=47 time=121\n",
      "note_off channel=0 note=65 velocity=0 time=2\n",
      "note_on channel=0 note=60 velocity=59 time=254\n",
      "note_off channel=0 note=55 velocity=0 time=0\n",
      "note_on channel=0 note=60 velocity=68 time=0\n",
      "note_off channel=0 note=62 velocity=0 time=5\n",
      "note_off channel=0 note=60 velocity=0 time=724\n",
      "note_off channel=0 note=60 velocity=0 time=39\n"
     ]
    }
   ],
   "source": [
    "# 自己輸入音符，bpm100\n",
    "mid_test1_20191121 = MidiFile('MIDI/ForTest/20191121 Test1.mid')\n",
    "print('MIDI檔案資訊：',mid_test1)\n",
    "count = 0\n",
    "\n",
    "for i, track1 in enumerate(mid_test1.tracks):\n",
    "    print('Track {}: {}'.format(i, track1.name))\n",
    "    print('track : ',track1)        \n",
    "    \n",
    "    for msg in track1:\n",
    "        #print(msg)\n",
    "        if msg.type == \"set_tempo\" and i == 0:\n",
    "            print(\"set_tempo:\",msg.tempo,'|',\"tempo:\",tempo2bpm(msg.tempo))\n",
    "            print()\n",
    "           \n",
    "        if msg.type == 'note_on' or msg.type == 'note_off' and i == 1:\n",
    "            velocity = msg.velocity\n",
    "                \n",
    "            if velocity == 0 or velocity != 0:\n",
    "                time = msg.time\n",
    "                bytes_list = msg.bytes()\n",
    "                bytes_list.append(time)\n",
    "                print(msg)\n",
    "                # 印出前5筆\n",
    "                #if count <= 5:\n",
    "                    #if time < 9:\n",
    "                        #print(msg,'     |  ',bytes_list)\n",
    "                    #elif 9 < time < 99:\n",
    "                        #print(msg,'    |   ',bytes_list)\n",
    "                    #elif 99 <time < 1000:\n",
    "                        #print(msg, '   |  ',bytes_list)\n",
    "                    #elif time > 1000:\n",
    "                        #print(msg,'  |  ',bytes_list)\n",
    "                count += 1      "
   ]
  },
  {
   "cell_type": "code",
   "execution_count": 27,
   "metadata": {
    "scrolled": true
   },
   "outputs": [
    {
     "name": "stdout",
     "output_type": "stream",
     "text": [
      "MIDI檔案資訊： <midi file 'MIDI/ForTest/20191121 Test2.mid' type 1, 1 tracks, 39 messages>\n",
      "Track 0: \n",
      "track :  <midi track '' 39 messages>\n",
      "set_tempo: 600000 | tempo: 100.0\n",
      "\n",
      "note_on channel=0 note=67 velocity=53 time=0\n",
      "note_on channel=0 note=67 velocity=0 time=683\n",
      "note_on channel=0 note=69 velocity=56 time=37\n",
      "note_on channel=0 note=69 velocity=0 time=227\n",
      "note_on channel=0 note=67 velocity=61 time=13\n",
      "note_on channel=0 note=67 velocity=0 time=455\n",
      "note_on channel=0 note=64 velocity=54 time=25\n",
      "note_on channel=0 note=64 velocity=0 time=1367\n",
      "note_on channel=0 note=67 velocity=65 time=73\n",
      "note_on channel=0 note=67 velocity=0 time=683\n",
      "note_on channel=0 note=69 velocity=67 time=37\n",
      "note_on channel=0 note=69 velocity=0 time=227\n",
      "note_on channel=0 note=67 velocity=58 time=13\n",
      "note_on channel=0 note=67 velocity=0 time=455\n",
      "note_on channel=0 note=64 velocity=51 time=25\n",
      "note_on channel=0 note=64 velocity=0 time=1367\n",
      "note_on channel=0 note=74 velocity=71 time=73\n",
      "note_on channel=0 note=74 velocity=0 time=911\n",
      "note_on channel=0 note=74 velocity=66 time=49\n",
      "note_on channel=0 note=74 velocity=0 time=455\n",
      "note_on channel=0 note=71 velocity=58 time=25\n",
      "note_on channel=0 note=71 velocity=0 time=1367\n",
      "note_on channel=0 note=72 velocity=58 time=73\n",
      "note_on channel=0 note=72 velocity=0 time=911\n",
      "note_on channel=0 note=72 velocity=59 time=49\n",
      "note_on channel=0 note=72 velocity=0 time=455\n",
      "note_on channel=0 note=67 velocity=49 time=25\n",
      "note_on channel=0 note=67 velocity=0 time=1367\n"
     ]
    }
   ],
   "source": [
    "# 8notes下載檔案用 Musescore匯出，bpm100\n",
    "mid_test2_20191121 = MidiFile('MIDI/ForTest/20191121 Test2.mid')\n",
    "print('MIDI檔案資訊：',mid_test2_20191121)\n",
    "count = 0\n",
    "\n",
    "for i, track2 in enumerate(mid_test2_20191121.tracks):\n",
    "    print('Track {}: {}'.format(i, track2.name))\n",
    "    print('track : ',track2)        \n",
    "    \n",
    "    for msg in track2:\n",
    "        #print(msg)\n",
    "        if msg.type == \"set_tempo\" and i == 0:\n",
    "            print(\"set_tempo:\",msg.tempo,'|',\"tempo:\",tempo2bpm(msg.tempo))\n",
    "            print()\n",
    "           \n",
    "        if msg.type == 'note_on' or msg.type == 'note_off' and i == 1:\n",
    "            velocity = msg.velocity\n",
    "                \n",
    "            if velocity == 0 or velocity != 0:\n",
    "                time = msg.time\n",
    "                bytes_list = msg.bytes()\n",
    "                bytes_list.append(time)\n",
    "                print(msg)\n",
    "                # 印出前5筆\n",
    "                #if count <= 5:\n",
    "                    #if time < 9:\n",
    "                        #print(msg,'     |  ',bytes_list)\n",
    "                    #elif 9 < time < 99:\n",
    "                        #print(msg,'    |   ',bytes_list)\n",
    "                    #elif 99 <time < 1000:\n",
    "                        #print(msg, '   |  ',bytes_list)\n",
    "                    #elif time > 1000:\n",
    "                        #print(msg,'  |  ',bytes_list)\n",
    "                count += 1      "
   ]
  },
  {
   "cell_type": "markdown",
   "metadata": {},
   "source": [
    "# 8notes下載 VS Musescore自行輸入 (同一首歌)"
   ]
  },
  {
   "cell_type": "code",
   "execution_count": 26,
   "metadata": {},
   "outputs": [
    {
     "name": "stdout",
     "output_type": "stream",
     "text": [
      "MIDI檔案資訊： <midi file 'MIDI/MIDI - silent_night_easy.mid' type 1, 2 tracks, 165 messages>\n",
      "Track 0: \n",
      "track :  <midi track '' 4 messages>\n",
      "set_tempo: 600000 | tempo: 100.0\n",
      "\n",
      "Track 1: Piano\n",
      "track :  <midi track 'Piano' 161 messages>\n",
      "note_on channel=0 note=67 velocity=53 time=0\n",
      "note_on channel=0 note=60 velocity=53 time=0\n",
      "note_on channel=0 note=69 velocity=56 time=384\n",
      "note_off channel=0 note=67 velocity=0 time=7\n",
      "note_on channel=0 note=67 velocity=61 time=121\n",
      "note_off channel=0 note=69 velocity=0 time=2\n",
      "note_on channel=0 note=64 velocity=54 time=254\n",
      "note_off channel=0 note=60 velocity=0 time=0\n",
      "note_on channel=0 note=60 velocity=57 time=0\n",
      "note_off channel=0 note=67 velocity=0 time=5\n",
      "note_on channel=0 note=67 velocity=65 time=763\n",
      "note_off channel=0 note=60 velocity=0 time=0\n",
      "note_on channel=0 note=60 velocity=64 time=0\n",
      "note_off channel=0 note=64 velocity=0 time=15\n",
      "note_on channel=0 note=69 velocity=67 time=369\n",
      "note_off channel=0 note=67 velocity=0 time=7\n",
      "note_on channel=0 note=67 velocity=58 time=121\n",
      "note_off channel=0 note=69 velocity=0 time=2\n",
      "note_on channel=0 note=64 velocity=51 time=254\n",
      "note_off channel=0 note=60 velocity=0 time=0\n",
      "note_on channel=0 note=60 velocity=61 time=0\n",
      "note_off channel=0 note=67 velocity=0 time=5\n",
      "note_off channel=0 note=60 velocity=0 time=251\n",
      "note_on channel=0 note=59 velocity=61 time=0\n",
      "note_off channel=0 note=59 velocity=0 time=256\n",
      "note_on channel=0 note=57 velocity=61 time=0\n",
      "note_off channel=0 note=64 velocity=0 time=217\n",
      "note_on channel=0 note=74 velocity=71 time=39\n",
      "note_off channel=0 note=57 velocity=0 time=0\n",
      "note_on channel=0 note=55 velocity=58 time=0\n",
      "note_off channel=0 note=74 velocity=0 time=512\n",
      "note_on channel=0 note=74 velocity=66 time=0\n",
      "note_on channel=0 note=71 velocity=58 time=256\n",
      "note_off channel=0 note=55 velocity=0 time=0\n",
      "note_on channel=0 note=55 velocity=55 time=0\n",
      "note_off channel=0 note=74 velocity=0 time=5\n",
      "note_off channel=0 note=55 velocity=0 time=507\n",
      "note_on channel=0 note=55 velocity=61 time=0\n",
      "note_on channel=0 note=72 velocity=58 time=256\n",
      "note_off channel=0 note=55 velocity=0 time=0\n",
      "note_on channel=0 note=60 velocity=71 time=0\n",
      "note_off channel=0 note=71 velocity=0 time=15\n",
      "note_off channel=0 note=72 velocity=0 time=497\n",
      "note_on channel=0 note=72 velocity=59 time=0\n",
      "note_on channel=0 note=67 velocity=49 time=256\n",
      "note_off channel=0 note=60 velocity=0 time=0\n",
      "note_on channel=0 note=60 velocity=62 time=0\n",
      "note_off channel=0 note=72 velocity=0 time=5\n",
      "note_off channel=0 note=67 velocity=0 time=724\n",
      "note_on channel=0 note=69 velocity=59 time=39\n",
      "note_off channel=0 note=60 velocity=0 time=0\n",
      "note_on channel=0 note=53 velocity=54 time=0\n",
      "note_off channel=0 note=69 velocity=0 time=512\n",
      "note_on channel=0 note=69 velocity=63 time=0\n",
      "note_on channel=0 note=72 velocity=72 time=256\n",
      "note_off channel=0 note=53 velocity=0 time=0\n",
      "note_on channel=0 note=53 velocity=59 time=0\n",
      "note_off channel=0 note=69 velocity=0 time=5\n",
      "note_on channel=0 note=71 velocity=55 time=379\n",
      "note_off channel=0 note=72 velocity=0 time=7\n",
      "note_on channel=0 note=69 velocity=48 time=121\n",
      "note_off channel=0 note=71 velocity=0 time=2\n",
      "note_on channel=0 note=67 velocity=59 time=254\n",
      "note_off channel=0 note=53 velocity=0 time=0\n",
      "note_on channel=0 note=60 velocity=72 time=0\n",
      "note_off channel=0 note=69 velocity=0 time=5\n",
      "note_on channel=0 note=69 velocity=61 time=379\n",
      "note_off channel=0 note=67 velocity=0 time=7\n",
      "note_on channel=0 note=67 velocity=67 time=121\n",
      "note_off channel=0 note=69 velocity=0 time=2\n",
      "note_on channel=0 note=64 velocity=66 time=254\n",
      "note_off channel=0 note=60 velocity=0 time=0\n",
      "note_on channel=0 note=60 velocity=65 time=0\n",
      "note_off channel=0 note=67 velocity=0 time=5\n",
      "note_off channel=0 note=64 velocity=0 time=724\n",
      "note_on channel=0 note=69 velocity=63 time=39\n",
      "note_off channel=0 note=60 velocity=0 time=0\n",
      "note_on channel=0 note=53 velocity=59 time=0\n",
      "note_off channel=0 note=69 velocity=0 time=512\n",
      "note_on channel=0 note=69 velocity=62 time=0\n",
      "note_on channel=0 note=72 velocity=70 time=256\n",
      "note_off channel=0 note=53 velocity=0 time=0\n",
      "note_on channel=0 note=53 velocity=57 time=0\n",
      "note_off channel=0 note=69 velocity=0 time=5\n",
      "note_on channel=0 note=71 velocity=60 time=379\n",
      "note_off channel=0 note=72 velocity=0 time=7\n",
      "note_on channel=0 note=69 velocity=53 time=121\n",
      "note_off channel=0 note=71 velocity=0 time=2\n",
      "note_on channel=0 note=67 velocity=59 time=254\n",
      "note_off channel=0 note=53 velocity=0 time=0\n",
      "note_on channel=0 note=60 velocity=68 time=0\n",
      "note_off channel=0 note=69 velocity=0 time=5\n",
      "note_on channel=0 note=69 velocity=62 time=379\n",
      "note_off channel=0 note=67 velocity=0 time=7\n",
      "note_on channel=0 note=67 velocity=60 time=121\n",
      "note_off channel=0 note=69 velocity=0 time=2\n",
      "note_on channel=0 note=64 velocity=51 time=254\n",
      "note_off channel=0 note=60 velocity=0 time=0\n",
      "note_on channel=0 note=60 velocity=58 time=0\n",
      "note_off channel=0 note=67 velocity=0 time=5\n",
      "note_off channel=0 note=60 velocity=0 time=251\n",
      "note_on channel=0 note=59 velocity=55 time=0\n",
      "note_off channel=0 note=59 velocity=0 time=256\n",
      "note_on channel=0 note=57 velocity=60 time=0\n",
      "note_off channel=0 note=64 velocity=0 time=217\n",
      "note_on channel=0 note=74 velocity=74 time=39\n",
      "note_off channel=0 note=57 velocity=0 time=0\n",
      "note_on channel=0 note=55 velocity=57 time=0\n",
      "note_off channel=0 note=74 velocity=0 time=512\n",
      "note_on channel=0 note=74 velocity=68 time=0\n",
      "note_on channel=0 note=77 velocity=72 time=256\n",
      "note_off channel=0 note=55 velocity=0 time=0\n",
      "note_on channel=0 note=55 velocity=67 time=0\n",
      "note_off channel=0 note=74 velocity=0 time=5\n",
      "note_on channel=0 note=74 velocity=59 time=251\n",
      "note_off channel=0 note=77 velocity=0 time=5\n",
      "note_on channel=0 note=71 velocity=64 time=251\n",
      "note_off channel=0 note=74 velocity=0 time=5\n",
      "note_on channel=0 note=72 velocity=80 time=251\n",
      "note_off channel=0 note=55 velocity=0 time=0\n",
      "note_on channel=0 note=60 velocity=83 time=0\n",
      "note_off channel=0 note=71 velocity=0 time=5\n",
      "note_on channel=0 note=76 velocity=76 time=763\n",
      "note_off channel=0 note=60 velocity=0 time=0\n",
      "note_on channel=0 note=60 velocity=66 time=0\n",
      "note_off channel=0 note=72 velocity=0 time=15\n",
      "note_off channel=0 note=76 velocity=0 time=714\n",
      "note_on channel=0 note=72 velocity=53 time=39\n",
      "note_off channel=0 note=60 velocity=0 time=0\n",
      "note_on channel=0 note=60 velocity=64 time=0\n",
      "note_on channel=0 note=67 velocity=45 time=256\n",
      "note_off channel=0 note=72 velocity=0 time=5\n",
      "note_on channel=0 note=64 velocity=58 time=251\n",
      "note_off channel=0 note=67 velocity=0 time=5\n",
      "note_on channel=0 note=67 velocity=62 time=251\n",
      "note_off channel=0 note=60 velocity=0 time=0\n",
      "note_on channel=0 note=55 velocity=56 time=0\n",
      "note_off channel=0 note=64 velocity=0 time=5\n",
      "note_on channel=0 note=65 velocity=55 time=379\n",
      "note_off channel=0 note=67 velocity=0 time=7\n",
      "note_on channel=0 note=62 velocity=47 time=121\n",
      "note_off channel=0 note=65 velocity=0 time=2\n",
      "note_on channel=0 note=60 velocity=59 time=254\n",
      "note_off channel=0 note=55 velocity=0 time=0\n",
      "note_on channel=0 note=60 velocity=68 time=0\n",
      "note_off channel=0 note=62 velocity=0 time=5\n",
      "note_off channel=0 note=60 velocity=0 time=724\n",
      "note_off channel=0 note=60 velocity=0 time=39\n"
     ]
    }
   ],
   "source": [
    "# 8notes下載檔案(silent_night_easy.mid)，bpm100\n",
    "mid_silent_night_easy = MidiFile('MIDI/MIDI - silent_night_easy.mid')\n",
    "print('MIDI檔案資訊：',mid_silent_night_easy)\n",
    "count = 0\n",
    "\n",
    "for i, track in enumerate(mid_silent_night_easy.tracks):\n",
    "    print('Track {}: {}'.format(i, track.name))\n",
    "    print('track : ',track)     \n",
    "    \n",
    "    for msg in track:\n",
    "        #print(msg)\n",
    "        if msg.type == \"set_tempo\" and i == 0:\n",
    "            print(\"set_tempo:\",msg.tempo,'|',\"tempo:\",tempo2bpm(msg.tempo))\n",
    "            print()\n",
    "           \n",
    "        if msg.type == 'note_on' or msg.type == 'note_off' and i == 1:\n",
    "            velocity = msg.velocity\n",
    "                \n",
    "            if velocity == 0 or velocity != 0:\n",
    "                time = msg.time\n",
    "                bytes_list = msg.bytes()\n",
    "                bytes_list.append(time)\n",
    "                print(msg)\n",
    "                # 印出前5筆\n",
    "                #if count <= 5:\n",
    "                    #if time < 9:\n",
    "                        #print(msg,'     |  ',bytes_list)\n",
    "                    #elif 9 < time < 99:\n",
    "                        #print(msg,'    |   ',bytes_list)\n",
    "                    #elif 99 <time < 1000:\n",
    "                        #print(msg, '   |  ',bytes_list)\n",
    "                    #elif time > 1000:\n",
    "                        #print(msg,'  |  ',bytes_list)\n",
    "                count += 1      "
   ]
  },
  {
   "cell_type": "code",
   "execution_count": 30,
   "metadata": {
    "scrolled": true
   },
   "outputs": [
    {
     "name": "stdout",
     "output_type": "stream",
     "text": [
      "MIDI檔案資訊： <midi file 'MIDI/ForTest/20191121 Test3.mid' type 1, 2 tracks, 64 messages>\n",
      "Track 0: \n",
      "track :  <midi track '' 39 messages>\n",
      "set_tempo: 600000 | tempo: 100.0\n",
      "\n",
      "note_on channel=0 note=67 velocity=80 time=0\n",
      "note_on channel=0 note=67 velocity=0 time=683\n",
      "note_on channel=0 note=69 velocity=80 time=37\n",
      "note_on channel=0 note=69 velocity=0 time=227\n",
      "note_on channel=0 note=67 velocity=80 time=13\n",
      "note_on channel=0 note=67 velocity=0 time=455\n",
      "note_on channel=0 note=64 velocity=80 time=25\n",
      "note_on channel=0 note=64 velocity=0 time=1367\n",
      "note_on channel=0 note=67 velocity=80 time=73\n",
      "note_on channel=0 note=67 velocity=0 time=683\n",
      "note_on channel=0 note=69 velocity=80 time=37\n",
      "note_on channel=0 note=69 velocity=0 time=227\n",
      "note_on channel=0 note=67 velocity=80 time=13\n",
      "note_on channel=0 note=67 velocity=0 time=455\n",
      "note_on channel=0 note=64 velocity=80 time=25\n",
      "note_on channel=0 note=64 velocity=0 time=1367\n",
      "note_on channel=0 note=74 velocity=80 time=73\n",
      "note_on channel=0 note=74 velocity=0 time=911\n",
      "note_on channel=0 note=74 velocity=80 time=49\n",
      "note_on channel=0 note=74 velocity=0 time=455\n",
      "note_on channel=0 note=71 velocity=80 time=25\n",
      "note_on channel=0 note=71 velocity=0 time=1367\n",
      "note_on channel=0 note=72 velocity=80 time=73\n",
      "note_on channel=0 note=72 velocity=0 time=911\n",
      "note_on channel=0 note=72 velocity=80 time=49\n",
      "note_on channel=0 note=72 velocity=0 time=455\n",
      "note_on channel=0 note=67 velocity=80 time=25\n",
      "note_on channel=0 note=67 velocity=0 time=1367\n",
      "Track 1: \n",
      "track :  <midi track '' 25 messages>\n",
      "note_on channel=0 note=60 velocity=80 time=0\n",
      "note_on channel=0 note=60 velocity=0 time=1367\n",
      "note_on channel=0 note=60 velocity=80 time=73\n",
      "note_on channel=0 note=60 velocity=0 time=1367\n",
      "note_on channel=0 note=60 velocity=80 time=73\n",
      "note_on channel=0 note=60 velocity=0 time=1367\n",
      "note_on channel=0 note=60 velocity=80 time=73\n",
      "note_on channel=0 note=60 velocity=0 time=455\n",
      "note_on channel=0 note=59 velocity=80 time=25\n",
      "note_on channel=0 note=59 velocity=0 time=455\n",
      "note_on channel=0 note=57 velocity=80 time=25\n",
      "note_on channel=0 note=57 velocity=0 time=455\n",
      "note_on channel=0 note=55 velocity=80 time=25\n",
      "note_on channel=0 note=55 velocity=0 time=1367\n",
      "note_on channel=0 note=55 velocity=80 time=73\n",
      "note_on channel=0 note=55 velocity=0 time=911\n",
      "note_on channel=0 note=55 velocity=80 time=49\n",
      "note_on channel=0 note=55 velocity=0 time=455\n",
      "note_on channel=0 note=60 velocity=80 time=25\n",
      "note_on channel=0 note=60 velocity=0 time=1367\n",
      "note_on channel=0 note=60 velocity=80 time=73\n",
      "note_on channel=0 note=60 velocity=0 time=1367\n"
     ]
    }
   ],
   "source": [
    "# 8notes下載檔案(20191121 Test3.mid)，bpm100\n",
    "mid_test3_20191121 = MidiFile('MIDI/ForTest/20191121 Test3.mid')\n",
    "print('MIDI檔案資訊：',mid_test3_20191121)\n",
    "count = 0\n",
    "\n",
    "for i, track in enumerate(mid_test3_20191121.tracks):\n",
    "    print('Track {}: {}'.format(i, track.name))\n",
    "    print('track : ',track)      \n",
    "    \n",
    "    for msg in track:\n",
    "        #print(msg)\n",
    "        if msg.type == \"set_tempo\" and i == 0:\n",
    "            print(\"set_tempo:\",msg.tempo,'|',\"tempo:\",tempo2bpm(msg.tempo))\n",
    "            print()\n",
    "           \n",
    "        if msg.type == 'note_on' or msg.type == 'note_off' and i == 1:\n",
    "            velocity = msg.velocity\n",
    "                \n",
    "            if velocity == 0 or velocity != 0:\n",
    "                time = msg.time\n",
    "                bytes_list = msg.bytes()\n",
    "                bytes_list.append(time)\n",
    "                print(msg)\n",
    "                # 印出前5筆\n",
    "                #if count <= 5:\n",
    "                    #if time < 9:\n",
    "                        #print(msg,'     |  ',bytes_list)\n",
    "                    #elif 9 < time < 99:\n",
    "                        #print(msg,'    |   ',bytes_list)\n",
    "                    #elif 99 <time < 1000:\n",
    "                        #print(msg, '   |  ',bytes_list)\n",
    "                    #elif time > 1000:\n",
    "                        #print(msg,'  |  ',bytes_list)\n",
    "                count += 1      "
   ]
  }
 ],
 "metadata": {
  "kernelspec": {
   "display_name": "Python 3",
   "language": "python",
   "name": "python3"
  },
  "language_info": {
   "codemirror_mode": {
    "name": "ipython",
    "version": 3
   },
   "file_extension": ".py",
   "mimetype": "text/x-python",
   "name": "python",
   "nbconvert_exporter": "python",
   "pygments_lexer": "ipython3",
   "version": "3.6.5"
  }
 },
 "nbformat": 4,
 "nbformat_minor": 2
}
